<?xml version="1.0" encoding="UTF-8"?>
<svg id="Warstwa_1" data-name="Warstwa 1" xmlns="http://www.w3.org/2000/svg" viewBox="0 0 847.17 217.24">
  <defs>
    <style>
      .cls-1 {
        fill: #fff;
        stroke-width: 0px;
      }
    </style>
  </defs>
  <g>
    <path class="cls-1" d="M220.16,93.6c.04-5.96.85-10.04,2.42-12.25,1.57-2.21,3.67-3.31,6.31-3.31,3.5,0,5.71,1.93,6.62,5.8l.14.68c.55,2.55,1.55,3.82,3,3.82.91,0,1.68-.31,2.32-.92.64-.61,1.39-1.72,2.25-3.31,1.18-2.55,2.81-4.47,4.88-5.77,2.07-1.3,4.72-1.94,7.95-1.94,3.77,0,7.34,1.12,10.71,3.34,3.37,2.23,6.11,5.88,8.22,10.95,2.12,5.07,3.17,11.91,3.17,20.5v5.53c0,8.6-1.08,15.39-3.24,20.37-2.16,4.98-4.92,8.54-8.29,10.68-3.37,2.14-6.87,3.21-10.51,3.21-5.09,0-9.14-1.75-12.14-5.25-1.59-1.91-2.96-2.87-4.09-2.87-1.73,0-2.46,1.64-2.18,4.91l.55,8.66c.18,3-.58,5.48-2.29,7.44-1.71,1.96-3.97,2.93-6.79,2.93-3.05,0-5.39-1.11-7.03-3.34-1.64-2.23-2.46-6.12-2.46-11.67l.48-58.2ZM259.25,114.54c0-5.05-.9-9.03-2.69-11.94-1.8-2.91-4.58-4.37-8.36-4.37-3.05,0-5.55,1.06-7.5,3.17-1.96,2.12-2.93,6.27-2.93,12.45v1.64c0,5.09,1,9.02,3,11.77,2,2.75,4.66,4.13,7.98,4.13,2.55,0,4.94-1.23,7.16-3.68,2.23-2.46,3.34-6.53,3.34-12.21v-.95Z"/>
    <path class="cls-1" d="M299.84,153.5c-5.82,0-10.51-2.13-14.05-6.38-3.55-4.25-5.32-10.59-5.32-19v-.48c0-7.14,1.92-12.78,5.76-16.92,3.84-4.14,8.68-6.21,14.5-6.21,2.55,0,4.62.4,6.21,1.19,1.59.8,3,1.85,4.23,3.17,1.5,1.59,2.89,2.09,4.16,1.5.86-.45,1.3-2.12,1.3-4.98v-.41c0-5.82-2.91-8.73-8.73-8.73-3.05,0-5.8.51-8.26,1.53s-4.84,1.54-7.16,1.54c-2,0-3.64-.71-4.91-2.12-1.27-1.41-1.91-3.32-1.91-5.73,0-3.28.98-5.89,2.93-7.85s4.62-3.5,7.98-4.64c1.91-.64,3.99-1.15,6.24-1.54,2.25-.39,4.58-.58,6.99-.58,6,0,10.93,1.09,14.77,3.28,3.84,2.18,6.66,5.81,8.46,10.88,1.8,5.07,2.6,11.95,2.42,20.64l-.34,10.57c-.05,2.82.17,5.19.65,7.1.48,1.91.99,3.68,1.54,5.32.45,1.32.86,2.64,1.23,3.96.36,1.32.55,2.8.55,4.43,0,2.41-.85,4.5-2.56,6.28-1.71,1.77-4.08,2.66-7.13,2.66-1.82,0-3.47-.43-4.95-1.3-1.48-.86-2.81-2.34-3.99-4.43-1-1.77-1.98-2.66-2.93-2.66s-2,.82-3.14,2.46c-1.5,2.32-3.4,4.14-5.7,5.46-2.3,1.32-5.24,1.98-8.84,1.98ZM313.11,134.12c1.71-1.64,2.56-4,2.56-7.1v-.89c0-2.55-.66-4.38-1.98-5.49-1.32-1.11-3.14-1.76-5.46-1.94-3.09-.23-5.44.42-7.03,1.94-1.59,1.52-2.39,3.74-2.39,6.65v.61c0,5.78,2.64,8.66,7.91,8.66,2.55,0,4.67-.82,6.38-2.46Z"/>
    <path class="cls-1" d="M344.74,97.14c.09-7.46.86-12.47,2.32-15.04,1.46-2.57,3.57-3.85,6.35-3.85,1.68,0,2.97.43,3.85,1.3.89.86,1.58,2.21,2.08,4.03l.2.68c.59,2.32,1.61,3.48,3.07,3.48.86,0,1.69-.31,2.49-.92.8-.61,1.58-1.69,2.35-3.24,2.82-5.91,7.44-8.87,13.85-8.87,6.05,0,10.43,2.47,13.13,7.4,2.71,4.94,4.1,11.95,4.2,21.05l.55,33.09c.09,6.05-.76,10.11-2.56,12.18-1.8,2.07-4.11,3.1-6.93,3.1s-4.92-.83-6.58-2.49c-1.66-1.66-2.58-4.38-2.76-8.15l.68-24.49c.09-4.32-.43-7.71-1.57-10.17-1.14-2.46-2.98-3.68-5.53-3.68-3.27,0-5.97,1.64-8.09,4.91-2.12,3.27-3.22,8.16-3.31,14.67l-.21,17.88c-.23,4.05-1.13,6.95-2.69,8.7s-3.63,2.63-6.17,2.63c-3.09,0-5.48-1.15-7.16-3.45-1.68-2.3-2.5-6.76-2.46-13.41l.89-37.32Z"/>
    <path class="cls-1" d="M463.79,133.71c.05,4.96-.3,8.74-1.02,11.36-.73,2.62-1.71,4.42-2.93,5.42-1.23,1-2.57,1.5-4.03,1.5-2.09,0-3.71-.54-4.84-1.6-1.14-1.07-2-2.72-2.59-4.95l-.14-.48c-.32-1.18-.69-2.13-1.13-2.83-.43-.71-1.13-1.06-2.08-1.06-.59,0-1.16.17-1.71.51-.55.34-1.05,1.01-1.5,2.01-1.55,3.05-3.51,5.24-5.9,6.58-2.39,1.34-5.13,2.01-8.22,2.01-3.55,0-7.12-1.15-10.71-3.45-3.59-2.3-6.61-6.11-9.04-11.43-2.43-5.32-3.65-12.53-3.65-21.63v-1.84c0-9.51,1.14-16.99,3.41-22.45,2.27-5.46,5.17-9.32,8.7-11.6,3.53-2.27,7.15-3.37,10.88-3.28,2.96.05,5.4.54,7.33,1.47,1.93.93,3.67,2.54,5.22,4.81.73,1.09,1.39,1.84,1.98,2.25.59.41,1.16.61,1.71.61.77,0,1.36-.38,1.77-1.13.41-.75.61-2.22.61-4.4l-.21-18.49c0-4.46.81-7.63,2.42-9.52,1.61-1.89,3.85-2.83,6.72-2.83s5.24,1.07,6.86,3.21c1.61,2.14,2.44,6.37,2.49,12.69l-.41,68.5ZM427.02,126.79c1.55,2.25,3.8,3.38,6.75,3.38,2.46,0,4.59-.92,6.41-2.76,1.82-1.84,2.89-5.38,3.21-10.61v-.89c.36-6.23-.35-10.8-2.15-13.71-1.8-2.91-4.29-4.37-7.47-4.37-2.96,0-5.21,1.13-6.75,3.38-1.55,2.25-2.32,6.36-2.32,12.32v1.02c0,5.91.77,9.99,2.32,12.25Z"/>
    <path class="cls-1" d="M487.06,153.5c-5.82,0-10.51-2.13-14.05-6.38-3.55-4.25-5.32-10.59-5.32-19v-.48c0-7.14,1.92-12.78,5.77-16.92,3.84-4.14,8.68-6.21,14.5-6.21,2.55,0,4.62.4,6.21,1.19,1.59.8,3,1.85,4.23,3.17,1.5,1.59,2.89,2.09,4.16,1.5.86-.45,1.3-2.12,1.3-4.98v-.41c0-5.82-2.91-8.73-8.73-8.73-3.05,0-5.8.51-8.25,1.53-2.46,1.02-4.84,1.54-7.16,1.54-2,0-3.64-.71-4.91-2.12-1.27-1.41-1.91-3.32-1.91-5.73,0-3.28.98-5.89,2.93-7.85,1.96-1.96,4.62-3.5,7.98-4.64,1.91-.64,3.99-1.15,6.24-1.54,2.25-.39,4.58-.58,6.99-.58,6,0,10.93,1.09,14.77,3.28,3.84,2.18,6.66,5.81,8.46,10.88,1.8,5.07,2.6,11.95,2.42,20.64l-.34,10.57c-.05,2.82.17,5.19.65,7.1.48,1.91.99,3.68,1.53,5.32.45,1.32.86,2.64,1.23,3.96.36,1.32.55,2.8.55,4.43,0,2.41-.85,4.5-2.56,6.28-1.71,1.77-4.08,2.66-7.13,2.66-1.82,0-3.47-.43-4.95-1.3-1.48-.86-2.81-2.34-3.99-4.43-1-1.77-1.98-2.66-2.93-2.66s-2,.82-3.14,2.46c-1.5,2.32-3.4,4.14-5.7,5.46-2.3,1.32-5.24,1.98-8.84,1.98ZM500.33,134.12c1.7-1.64,2.56-4,2.56-7.1v-.89c0-2.55-.66-4.38-1.98-5.49-1.32-1.11-3.14-1.76-5.46-1.94-3.09-.23-5.44.42-7.03,1.94-1.59,1.52-2.39,3.74-2.39,6.65v.61c0,5.78,2.64,8.66,7.92,8.66,2.55,0,4.67-.82,6.38-2.46Z"/>
    <path class="cls-1" d="M588.56,145.35c-4.12,4.07-10.7,6.11-19.75,6.11-2.78,0-5.21-.22-7.3-.65-2.09-.43-3.93-.85-5.53-1.26-2.37-.59-4.22-1.55-5.56-2.87-1.34-1.32-2.01-3.16-2.01-5.53,0-2.18.69-3.73,2.08-4.64,1.39-.91,3.1-1.36,5.15-1.36,1.27,0,2.77.31,4.5.92,1.73.61,3.58,1.24,5.56,1.88,1.98.64,3.99.95,6.04.95,3.05,0,5.14-.76,6.28-2.29,1.14-1.52,1.7-3.26,1.7-5.22,0-2.09-.59-3.91-1.77-5.46-1.18-1.55-3.68-3.37-7.5-5.46l-2.39-1.3c-5.23-2.87-9.18-5.51-11.84-7.95-2.66-2.43-4.45-4.83-5.36-7.2-.91-2.36-1.36-4.84-1.36-7.44,0-6.64,2.22-11.36,6.65-14.16,4.43-2.8,10.49-4.2,18.18-4.2,2.68,0,5.31.18,7.88.55,2.57.36,4.61.8,6.11,1.3,1.68.59,3.14,1.49,4.37,2.69,1.23,1.21,1.84,2.65,1.84,4.33,0,2.55-.69,4.54-2.08,5.97-1.39,1.43-3.1,2.15-5.15,2.15-1.91,0-4.01-.5-6.31-1.5-2.3-1-4.9-1.5-7.81-1.5s-5.23.54-6.69,1.6c-1.46,1.07-2.18,2.42-2.18,4.06s.45,3.25,1.36,4.71c.91,1.46,2.82,2.73,5.73,3.82l1.64.61c5.59,2.09,9.96,4.19,13.1,6.28,3.14,2.09,5.36,4.41,6.65,6.96,1.3,2.55,1.95,5.55,1.95,9.01,0,6.64-2.06,12-6.18,16.07Z"/>
    <path class="cls-1" d="M625.37,151.59c-6.23,0-11.55-1.11-15.96-3.34-4.41-2.23-7.79-5.92-10.13-11.09-2.34-5.16-3.51-12.09-3.51-20.78v-4.37c0-7.82,1.19-14.24,3.58-19.24,2.39-5,5.62-8.7,9.69-11.09,4.07-2.39,8.63-3.58,13.68-3.58,4.55,0,8.67,1.11,12.35,3.34,3.68,2.23,6.63,5.76,8.84,10.61,2.21,4.84,3.31,11.18,3.31,19,0,6.19-3.18,9.35-9.55,9.48l-17.67.41c-2.91.05-5.02.54-6.31,1.47-1.3.93-1.95,2.45-1.95,4.54,0,3.64,1.01,6.46,3.04,8.46,2.02,2,5.79,3,11.29,3,3.59,0,6.41-.44,8.46-1.33,2.05-.89,3.98-1.33,5.8-1.33,1.68,0,2.97.54,3.85,1.6.89,1.07,1.33,2.45,1.33,4.13s-.71,3.31-2.12,4.88c-1.41,1.57-3.62,2.81-6.62,3.72-3.09,1-6.89,1.5-11.39,1.5ZM633.55,108.4c.77-.64,1.16-1.93,1.16-3.89v-.27c0-4.14-.92-7.32-2.76-9.55-1.84-2.23-4.7-3.34-8.56-3.34-4.18,0-7.26,1.09-9.21,3.27-1.96,2.18-3.03,4.69-3.21,7.51-.14,2.32.24,3.95,1.13,4.88.89.93,2.33,1.44,4.33,1.54l12.69.68c2.18.09,3.66-.18,4.44-.82Z"/>
    <path class="cls-1" d="M655.46,88.68c-.05-3.28.5-5.59,1.64-6.96,1.14-1.36,2.57-2.05,4.3-2.05,2.32,0,3.93,1.18,4.84,3.55l.21.55c.86,2.23,2.09,3.34,3.68,3.34,1.77,0,3.32-1.16,4.64-3.48,2.32-4.09,5.77-6.14,10.37-6.14,3,0,5.09.76,6.28,2.28,1.18,1.52,1.77,3.33,1.77,5.42,0,4.41-2.89,7.14-8.67,8.19-4.23.73-7.47,1.73-9.72,3-2.25,1.27-3.75,3.31-4.5,6.11-.75,2.8-.97,6.9-.65,12.31l1.5,24.83c.5,7.5-2.14,11.26-7.91,11.26-2.09,0-3.8-.75-5.12-2.25-1.32-1.5-2-3.82-2.05-6.96l-.61-53.01Z"/>
    <path class="cls-1" d="M762.09,131.26c-1.32,6.1-2.54,10.59-3.65,13.47-1.12,2.89-2.28,4.75-3.48,5.59-1.21.84-2.6,1.26-4.2,1.26-2.23,0-4.23-.69-6-2.08-1.77-1.39-3.09-4.22-3.96-8.49l-3.89-19.44c-.59-2.77-1.13-4.55-1.6-5.32-.48-.77-1.1-1.16-1.88-1.16-.68,0-1.29.38-1.81,1.13-.52.75-1.03,2.6-1.53,5.56l-1.36,8.19c-.86,5.18-1.77,9.19-2.73,12.01-.96,2.82-2.05,4.78-3.27,5.87-1.23,1.09-2.73,1.64-4.5,1.64-1.59,0-3-.39-4.23-1.16-1.23-.77-2.43-2.47-3.62-5.08-1.18-2.61-2.5-6.65-3.96-12.11l-5.94-22.51c-1.55-6-2.66-10.75-3.34-14.22-.68-3.48-1.02-6.38-1.02-8.7,0-2.55.68-4.33,2.05-5.36,1.36-1.02,2.71-1.54,4.03-1.54,1.5,0,2.88.49,4.13,1.47,1.25.98,2.42,3.12,3.51,6.41,1.09,3.3,2.12,8.43,3.07,15.39l2.18,15.01c.23,1.96.68,3.45,1.36,4.47.68,1.02,1.36,1.54,2.05,1.54.59,0,1.16-.31,1.71-.92.55-.61,1-2.01,1.36-4.2l3.41-19.17c.91-5.09,2.06-8.56,3.45-10.4,1.39-1.84,3.06-2.76,5.01-2.76,1.05,0,2.14.29,3.27.85,1.14.57,2.21,1.8,3.21,3.68,1,1.89,1.77,4.79,2.32,8.7l2.66,17.74c.45,2.96.92,4.89,1.4,5.8.48.91,1.01,1.36,1.6,1.36.77,0,1.49-.44,2.15-1.33.66-.89,1.28-2.9,1.88-6.04l3.96-21.83c1.14-6.09,2.35-10.13,3.65-12.11,1.3-1.98,3.19-2.97,5.7-2.97,2.14,0,3.71.63,4.71,1.88,1,1.25,1.5,2.85,1.5,4.81,0,.59-.16,1.72-.48,3.38-.32,1.66-.68,3.49-1.09,5.49l-7.78,36.23Z"/>
    <path class="cls-1" d="M792.18,54.37c1.91,1.73,2.87,3.89,2.87,6.48s-.92,4.61-2.76,5.9-4.04,2.08-6.58,2.35c-3.14.32-5.41-.24-6.82-1.67s-2.12-3.54-2.12-6.31.83-5.14,2.49-6.82c1.66-1.68,3.72-2.52,6.18-2.52,2.59,0,4.84.86,6.75,2.59ZM778.13,88.96c-.09-4.27.57-7.13,1.98-8.56,1.41-1.43,3.39-2.15,5.94-2.15,2.27,0,4.14.73,5.59,2.18,1.46,1.46,2.14,4.34,2.05,8.66l-1.5,54.51c-.14,5.05-2.28,7.57-6.41,7.57s-6.21-2.52-6.35-7.57l-1.3-54.65Z"/>
    <path class="cls-1" d="M841,145.35c-4.12,4.07-10.7,6.11-19.75,6.11-2.78,0-5.21-.22-7.3-.65-2.09-.43-3.93-.85-5.53-1.26-2.37-.59-4.22-1.55-5.56-2.87-1.34-1.32-2.01-3.16-2.01-5.53,0-2.18.69-3.73,2.08-4.64,1.39-.91,3.1-1.36,5.15-1.36,1.27,0,2.77.31,4.5.92,1.73.61,3.58,1.24,5.56,1.88,1.98.64,3.99.95,6.04.95,3.05,0,5.14-.76,6.28-2.29,1.14-1.52,1.7-3.26,1.7-5.22,0-2.09-.59-3.91-1.77-5.46-1.18-1.55-3.68-3.37-7.5-5.46l-2.39-1.3c-5.23-2.87-9.18-5.51-11.84-7.95-2.66-2.43-4.45-4.83-5.36-7.2-.91-2.36-1.36-4.84-1.36-7.44,0-6.64,2.22-11.36,6.65-14.16,4.43-2.8,10.49-4.2,18.18-4.2,2.68,0,5.31.18,7.88.55,2.57.36,4.61.8,6.11,1.3,1.68.59,3.14,1.49,4.37,2.69,1.23,1.21,1.84,2.65,1.84,4.33,0,2.55-.69,4.54-2.08,5.97-1.39,1.43-3.1,2.15-5.15,2.15-1.91,0-4.01-.5-6.31-1.5-2.3-1-4.9-1.5-7.81-1.5s-5.23.54-6.69,1.6c-1.46,1.07-2.18,2.42-2.18,4.06s.45,3.25,1.36,4.71c.91,1.46,2.82,2.73,5.73,3.82l1.64.61c5.59,2.09,9.96,4.19,13.1,6.28,3.14,2.09,5.36,4.41,6.65,6.96,1.3,2.55,1.95,5.55,1.95,9.01,0,6.64-2.06,12-6.18,16.07Z"/>
  </g>
  <path class="cls-1" d="M138.83,15.54c-26.75-20.86-64.63-20.66-90.67.25C17.15,9.11,6.16,23.99,2.86,30.79.35,35.94-.52,41.95.29,48.04l7.25,95.32c.14,8.18.68,15.23,1.63,21.6l.17,2.05.17.03c2.48,14.46,7.47,25.31,15.22,33.18,14.01,14.18,34.14,17.02,62.07,17.02,4.79,0,10.06-.05,17.17-.25,11.64-.28,21.28-8.85,22.94-20.38.85-5.89-.59-11.9-3.92-16.74.48-.2.96-.4,1.41-.6,32.56-14.99,53.33-41.8,57.02-73.59,3.84-33.18-11.67-66.02-42.59-90.14ZM103.54,199.68c-64.29,1.58-81.09-2.54-78.47-74.47.23-6.2,8.96-8.51,11.56-2.87,14.99,32.86,12.88,46.96,68.72,64.77,6.9,2.23,5.44,12.37-1.81,12.57ZM96.16,74.64c1.77,25.01-20.69,38.11-25.85,5.75-4.85-21.11,25.76-30.52,25.85-5.75ZM117.16,163.52c-6.09,2.82-14.49.65-18.52-4.68-26.16-34.56,37.71-32.16,42.28-60.6.28-1.69-.85-3.36-2.54-3.55-6.37-.79-7.21-5.36-5.13-8.23,1.05-1.47.57-3.5-1.13-4.12-30.75-10.99-25.79-33.82-67.33-38.14-10.32-1.07-20.5,3.92-25.68,12.91-.62,1.05-1.21,2.17-1.75,3.36-1.63,3.58-6.17,4.73-9.3,2.36-15.76-11.95-18.21-39.32,19.9-29.28,2.93.79,6.09.11,8.34-1.95.54-.45,1.07-.93,1.61-1.38,20.04-17.02,49.52-17.19,70.27-1.01,54.29,42.36,45.8,108.15-11.02,134.31Z"/>
</svg>