<?xml version="1.0" encoding="UTF-8"?>
<svg id="Warstwa_1" data-name="Warstwa 1" xmlns="http://www.w3.org/2000/svg" viewBox="0 0 699.45 217.03">
  <defs>
    <style>
      .cls-1 {
        fill: #fff;
        stroke-width: 0px;
      }
    </style>
  </defs>
  <g>
    <g>
      <path class="cls-1" d="M210.29,75.32c.03-4.65.67-7.83,1.89-9.55,1.22-1.72,2.86-2.58,4.92-2.58,2.73,0,4.45,1.51,5.16,4.52l.11.53c.43,1.99,1.21,2.98,2.34,2.98.71,0,1.31-.24,1.81-.72.5-.48,1.08-1.34,1.76-2.58.92-1.99,2.19-3.49,3.81-4.5,1.61-1.01,3.68-1.52,6.2-1.52,2.94,0,5.73.87,8.36,2.61,2.63,1.74,4.76,4.59,6.41,8.54,1.65,3.96,2.48,9.29,2.48,15.99v4.31c0,6.71-.84,12-2.53,15.89-1.69,3.89-3.84,6.66-6.47,8.33-2.63,1.67-5.36,2.5-8.2,2.5-3.97,0-7.13-1.37-9.47-4.1-1.24-1.49-2.31-2.24-3.19-2.24-1.35,0-1.92,1.28-1.7,3.83l.43,6.76c.14,2.34-.45,4.28-1.78,5.8-1.33,1.53-3.1,2.29-5.3,2.29-2.38,0-4.21-.87-5.48-2.61-1.28-1.74-1.92-4.77-1.92-9.1l.37-45.4ZM240.79,91.66c0-3.94-.7-7.04-2.1-9.31-1.4-2.27-3.58-3.41-6.52-3.41-2.38,0-4.33.83-5.85,2.48-1.53,1.65-2.29,4.89-2.29,9.71v1.28c0,3.97.78,7.04,2.34,9.18,1.56,2.15,3.64,3.22,6.23,3.22,1.99,0,3.85-.96,5.59-2.87,1.74-1.92,2.61-5.09,2.61-9.53v-.74Z"/>
      <path class="cls-1" d="M272.46,122.05c-4.54,0-8.2-1.66-10.96-4.98-2.77-3.32-4.15-8.26-4.15-14.82v-.37c0-5.57,1.5-9.97,4.5-13.2,3-3.23,6.77-4.84,11.31-4.84,1.99,0,3.6.31,4.84.93,1.24.62,2.34,1.45,3.3,2.48,1.17,1.24,2.25,1.63,3.25,1.17.67-.35,1.01-1.65,1.01-3.89v-.32c0-4.54-2.27-6.81-6.81-6.81-2.38,0-4.52.4-6.44,1.2s-3.78,1.2-5.59,1.2c-1.56,0-2.84-.55-3.83-1.65-.99-1.1-1.49-2.59-1.49-4.47,0-2.56.76-4.59,2.29-6.12s3.6-2.73,6.23-3.62c1.49-.5,3.11-.9,4.87-1.2,1.76-.3,3.57-.45,5.46-.45,4.68,0,8.52.85,11.52,2.56,3,1.7,5.2,4.53,6.6,8.49,1.4,3.96,2.03,9.32,1.89,16.1l-.27,8.25c-.04,2.2.13,4.05.51,5.54.37,1.49.77,2.87,1.2,4.15.35,1.03.67,2.06.96,3.09.28,1.03.43,2.18.43,3.46,0,1.88-.67,3.51-2,4.9-1.33,1.38-3.19,2.08-5.56,2.08-1.42,0-2.71-.34-3.86-1.01-1.15-.67-2.19-1.83-3.11-3.46-.78-1.38-1.54-2.08-2.29-2.08s-1.56.64-2.45,1.92c-1.17,1.81-2.65,3.23-4.44,4.26-1.79,1.03-4.09,1.54-6.89,1.54ZM282.81,106.93c1.33-1.28,2-3.12,2-5.54v-.69c0-1.99-.52-3.41-1.54-4.28-1.03-.87-2.45-1.37-4.26-1.52-2.41-.18-4.24.33-5.48,1.52-1.24,1.19-1.86,2.92-1.86,5.19v.48c0,4.51,2.06,6.76,6.17,6.76,1.99,0,3.65-.64,4.98-1.92Z"/>
      <path class="cls-1" d="M307.48,78.08c.07-5.82.67-9.73,1.81-11.74,1.14-2,2.79-3.01,4.95-3.01,1.31,0,2.32.34,3.01,1.01.69.67,1.23,1.72,1.62,3.14l.16.53c.46,1.81,1.26,2.71,2.39,2.71.67,0,1.32-.24,1.94-.72.62-.48,1.23-1.32,1.84-2.53,2.2-4.61,5.8-6.92,10.8-6.92,4.72,0,8.13,1.93,10.25,5.78,2.11,3.85,3.2,9.32,3.27,16.42l.43,25.81c.07,4.72-.59,7.89-2,9.5-1.4,1.61-3.2,2.42-5.4,2.42s-3.84-.65-5.14-1.94c-1.3-1.29-2.01-3.41-2.16-6.36l.53-19.11c.07-3.37-.34-6.01-1.22-7.93-.89-1.92-2.32-2.87-4.31-2.87-2.55,0-4.66,1.28-6.31,3.83-1.65,2.55-2.51,6.37-2.58,11.44l-.16,13.95c-.18,3.16-.88,5.42-2.1,6.79s-2.83,2.05-4.82,2.05c-2.41,0-4.28-.9-5.59-2.69-1.31-1.79-1.95-5.28-1.92-10.46l.69-29.11Z"/>
      <path class="cls-1" d="M400.36,106.61c.04,3.87-.23,6.82-.8,8.86-.57,2.04-1.33,3.45-2.29,4.23-.96.78-2.01,1.17-3.14,1.17-1.63,0-2.89-.42-3.78-1.25-.89-.83-1.56-2.12-2.02-3.86l-.11-.37c-.25-.92-.54-1.66-.88-2.21-.34-.55-.88-.83-1.62-.83-.46,0-.9.13-1.33.4-.43.27-.82.79-1.17,1.57-1.21,2.38-2.74,4.09-4.6,5.14-1.86,1.05-4,1.57-6.41,1.57-2.77,0-5.55-.9-8.36-2.69-2.8-1.79-5.15-4.76-7.05-8.92-1.9-4.15-2.85-9.77-2.85-16.87v-1.44c0-7.42.89-13.25,2.66-17.51,1.77-4.26,4.04-7.27,6.79-9.05,2.75-1.77,5.58-2.63,8.49-2.56,2.31.04,4.21.42,5.72,1.14,1.51.73,2.86,1.98,4.07,3.75.57.85,1.08,1.44,1.54,1.76.46.32.9.48,1.33.48.6,0,1.06-.29,1.38-.88.32-.59.48-1.73.48-3.43l-.16-14.42c0-3.48.63-5.95,1.89-7.43,1.26-1.47,3.01-2.21,5.24-2.21s4.09.83,5.35,2.5c1.26,1.67,1.91,4.97,1.94,9.9l-.32,53.44ZM371.67,101.21c1.21,1.76,2.96,2.63,5.27,2.63,1.92,0,3.58-.72,5-2.16,1.42-1.44,2.25-4.2,2.5-8.28v-.69c.28-4.86-.28-8.43-1.68-10.7-1.4-2.27-3.34-3.41-5.83-3.41-2.31,0-4.06.88-5.27,2.63-1.21,1.76-1.81,4.96-1.81,9.61v.8c0,4.61.6,7.8,1.81,9.55Z"/>
      <path class="cls-1" d="M418.51,122.05c-4.54,0-8.2-1.66-10.96-4.98-2.77-3.32-4.15-8.26-4.15-14.82v-.37c0-5.57,1.5-9.97,4.5-13.2,3-3.23,6.77-4.84,11.31-4.84,1.99,0,3.6.31,4.84.93,1.24.62,2.34,1.45,3.3,2.48,1.17,1.24,2.25,1.63,3.25,1.17.67-.35,1.01-1.65,1.01-3.89v-.32c0-4.54-2.27-6.81-6.81-6.81-2.38,0-4.52.4-6.44,1.2-1.92.8-3.78,1.2-5.59,1.2-1.56,0-2.84-.55-3.83-1.65-.99-1.1-1.49-2.59-1.49-4.47,0-2.56.76-4.59,2.29-6.12,1.53-1.53,3.6-2.73,6.23-3.62,1.49-.5,3.11-.9,4.87-1.2,1.76-.3,3.57-.45,5.45-.45,4.68,0,8.53.85,11.52,2.56,3,1.7,5.2,4.53,6.6,8.49,1.4,3.96,2.03,9.32,1.89,16.1l-.27,8.25c-.04,2.2.13,4.05.51,5.54.37,1.49.77,2.87,1.2,4.15.35,1.03.67,2.06.96,3.09.28,1.03.43,2.18.43,3.46,0,1.88-.66,3.51-2,4.9s-3.19,2.08-5.56,2.08c-1.42,0-2.71-.34-3.86-1.01-1.15-.67-2.19-1.83-3.11-3.46-.78-1.38-1.54-2.08-2.29-2.08s-1.56.64-2.45,1.92c-1.17,1.81-2.65,3.23-4.44,4.26-1.79,1.03-4.09,1.54-6.89,1.54ZM428.86,106.93c1.33-1.28,2-3.12,2-5.54v-.69c0-1.99-.51-3.41-1.54-4.28-1.03-.87-2.45-1.37-4.26-1.52-2.41-.18-4.24.33-5.48,1.52-1.24,1.19-1.86,2.92-1.86,5.19v.48c0,4.51,2.06,6.76,6.17,6.76,1.99,0,3.65-.64,4.98-1.92Z"/>
      <path class="cls-1" d="M497.7,115.69c-3.21,3.18-8.35,4.76-15.41,4.76-2.17,0-4.06-.17-5.7-.51-1.63-.34-3.07-.67-4.31-.99-1.85-.46-3.29-1.21-4.34-2.24-1.05-1.03-1.57-2.47-1.57-4.31,0-1.7.54-2.91,1.62-3.62,1.08-.71,2.42-1.06,4.02-1.06.99,0,2.16.24,3.51.72,1.35.48,2.79.97,4.34,1.46,1.54.5,3.11.74,4.71.74,2.38,0,4.01-.59,4.9-1.78.89-1.19,1.33-2.55,1.33-4.07,0-1.63-.46-3.05-1.38-4.26-.92-1.21-2.87-2.63-5.85-4.26l-1.86-1.01c-4.08-2.24-7.16-4.3-9.23-6.2-2.08-1.9-3.47-3.77-4.18-5.62-.71-1.84-1.06-3.78-1.06-5.8,0-5.18,1.73-8.86,5.19-11.04,3.46-2.18,8.19-3.27,14.18-3.27,2.09,0,4.14.14,6.15.43,2,.28,3.59.62,4.76,1.01,1.31.46,2.45,1.16,3.41,2.1.96.94,1.44,2.07,1.44,3.38,0,1.99-.54,3.54-1.62,4.66s-2.42,1.68-4.02,1.68c-1.49,0-3.13-.39-4.92-1.17-1.79-.78-3.82-1.17-6.09-1.17s-4.08.42-5.22,1.25c-1.14.83-1.7,1.89-1.7,3.17s.35,2.54,1.06,3.67c.71,1.14,2.2,2.13,4.47,2.98l1.28.48c4.36,1.63,7.77,3.27,10.22,4.9,2.45,1.63,4.18,3.44,5.19,5.43,1.01,1.99,1.52,4.33,1.52,7.03,0,5.18-1.61,9.36-4.82,12.53Z"/>
      <path class="cls-1" d="M526.41,120.56c-4.86,0-9.01-.87-12.45-2.61-3.44-1.74-6.08-4.62-7.9-8.65-1.83-4.03-2.74-9.43-2.74-16.21v-3.41c0-6.1.93-11.11,2.79-15.01,1.86-3.9,4.38-6.79,7.56-8.65,3.18-1.86,6.73-2.79,10.67-2.79,3.55,0,6.76.87,9.63,2.61,2.87,1.74,5.17,4.5,6.89,8.28,1.72,3.78,2.58,8.72,2.58,14.82,0,4.83-2.48,7.29-7.45,7.4l-13.78.32c-2.27.04-3.91.42-4.92,1.14-1.01.73-1.52,1.91-1.52,3.54,0,2.84.79,5.04,2.37,6.6,1.58,1.56,4.51,2.34,8.81,2.34,2.8,0,5-.35,6.6-1.04,1.6-.69,3.1-1.04,4.52-1.04,1.31,0,2.31.42,3.01,1.25.69.83,1.04,1.91,1.04,3.22s-.55,2.58-1.65,3.81c-1.1,1.22-2.82,2.19-5.16,2.9-2.41.78-5.38,1.17-8.89,1.17ZM532.8,86.87c.6-.5.9-1.51.9-3.03v-.21c0-3.23-.72-5.71-2.16-7.45-1.44-1.74-3.66-2.61-6.68-2.61-3.26,0-5.66.85-7.19,2.55-1.53,1.7-2.36,3.66-2.5,5.86-.11,1.81.19,3.08.88,3.81.69.73,1.82,1.13,3.38,1.2l9.9.53c1.7.07,2.86-.14,3.46-.64Z"/>
      <path class="cls-1" d="M549.88,71.48c-.04-2.56.39-4.36,1.28-5.43.89-1.06,2-1.6,3.35-1.6,1.81,0,3.07.92,3.78,2.77l.16.43c.67,1.74,1.63,2.61,2.87,2.61,1.38,0,2.59-.91,3.62-2.71,1.81-3.19,4.5-4.79,8.09-4.79,2.34,0,3.97.59,4.9,1.78.92,1.19,1.38,2.6,1.38,4.23,0,3.44-2.25,5.57-6.76,6.39-3.3.57-5.83,1.35-7.58,2.34-1.76.99-2.93,2.58-3.51,4.76s-.75,5.38-.51,9.61l1.17,19.37c.39,5.85-1.67,8.78-6.17,8.78-1.63,0-2.96-.59-3.99-1.76-1.03-1.17-1.56-2.98-1.6-5.43l-.48-41.36Z"/>
      <path class="cls-1" d="M633.08,104.7c-1.03,4.76-1.98,8.26-2.85,10.51-.87,2.25-1.77,3.71-2.71,4.36-.94.66-2.03.98-3.27.98-1.74,0-3.3-.54-4.68-1.62-1.38-1.08-2.41-3.29-3.09-6.63l-3.03-15.17c-.46-2.16-.88-3.55-1.25-4.15-.37-.6-.86-.9-1.46-.9-.53,0-1,.29-1.41.88-.41.59-.81,2.03-1.2,4.34l-1.06,6.39c-.67,4.04-1.38,7.17-2.13,9.37-.75,2.2-1.6,3.73-2.55,4.58-.96.85-2.13,1.28-3.51,1.28-1.24,0-2.34-.3-3.3-.9-.96-.6-1.9-1.92-2.82-3.97-.92-2.04-1.95-5.19-3.09-9.45l-4.63-17.56c-1.21-4.68-2.08-8.38-2.61-11.1-.53-2.71-.8-4.98-.8-6.79,0-1.99.53-3.38,1.6-4.18,1.06-.8,2.11-1.2,3.14-1.2,1.17,0,2.24.38,3.22,1.14.98.76,1.89,2.43,2.74,5,.85,2.57,1.65,6.57,2.4,12l1.7,11.71c.18,1.53.53,2.69,1.06,3.49.53.8,1.06,1.2,1.6,1.2.46,0,.9-.24,1.33-.72.43-.48.78-1.57,1.06-3.27l2.66-14.96c.71-3.97,1.6-6.68,2.69-8.12,1.08-1.44,2.39-2.16,3.91-2.16.82,0,1.67.22,2.55.67.89.44,1.72,1.4,2.5,2.87.78,1.47,1.38,3.74,1.81,6.79l2.08,13.84c.35,2.31.72,3.81,1.09,4.52.37.71.79,1.06,1.25,1.06.6,0,1.16-.35,1.68-1.04.51-.69,1-2.26,1.46-4.71l3.09-17.03c.89-4.75,1.84-7.9,2.85-9.45,1.01-1.54,2.49-2.32,4.44-2.32,1.67,0,2.89.49,3.67,1.46.78.98,1.17,2.23,1.17,3.75,0,.46-.12,1.34-.37,2.63-.25,1.3-.53,2.72-.85,4.28l-6.07,28.26Z"/>
      <path class="cls-1" d="M656.55,44.71c1.49,1.35,2.24,3.03,2.24,5.06s-.72,3.59-2.16,4.6-3.15,1.62-5.14,1.84c-2.45.25-4.22-.19-5.32-1.3s-1.65-2.76-1.65-4.92.65-4.01,1.94-5.32c1.3-1.31,2.9-1.97,4.82-1.97,2.02,0,3.78.67,5.27,2.02ZM645.58,71.7c-.07-3.33.44-5.56,1.54-6.68,1.1-1.12,2.64-1.68,4.63-1.68,1.77,0,3.23.57,4.36,1.7,1.14,1.14,1.67,3.39,1.6,6.76l-1.17,42.53c-.11,3.94-1.77,5.91-5,5.91s-4.84-1.97-4.95-5.91l-1.01-42.63Z"/>
      <path class="cls-1" d="M694.63,115.69c-3.21,3.18-8.35,4.76-15.41,4.76-2.17,0-4.06-.17-5.7-.51-1.63-.34-3.07-.67-4.31-.99-1.85-.46-3.29-1.21-4.34-2.24-1.05-1.03-1.57-2.47-1.57-4.31,0-1.7.54-2.91,1.62-3.62,1.08-.71,2.42-1.06,4.02-1.06.99,0,2.16.24,3.51.72,1.35.48,2.79.97,4.34,1.46,1.54.5,3.11.74,4.71.74,2.38,0,4.01-.59,4.9-1.78.89-1.19,1.33-2.55,1.33-4.07,0-1.63-.46-3.05-1.38-4.26-.92-1.21-2.87-2.63-5.85-4.26l-1.86-1.01c-4.08-2.24-7.16-4.3-9.23-6.2-2.08-1.9-3.47-3.77-4.18-5.62-.71-1.84-1.06-3.78-1.06-5.8,0-5.18,1.73-8.86,5.19-11.04,3.46-2.18,8.19-3.27,14.18-3.27,2.09,0,4.14.14,6.15.43,2,.28,3.59.62,4.76,1.01,1.31.46,2.45,1.16,3.41,2.1.96.94,1.44,2.07,1.44,3.38,0,1.99-.54,3.54-1.62,4.66s-2.42,1.68-4.02,1.68c-1.49,0-3.13-.39-4.92-1.17-1.79-.78-3.82-1.17-6.09-1.17s-4.08.42-5.22,1.25c-1.14.83-1.7,1.89-1.7,3.17s.35,2.54,1.06,3.67c.71,1.14,2.2,2.13,4.47,2.98l1.28.48c4.36,1.63,7.77,3.27,10.22,4.9,2.45,1.63,4.18,3.44,5.19,5.43,1.01,1.99,1.52,4.33,1.52,7.03,0,5.18-1.61,9.36-4.82,12.53Z"/>
    </g>
    <g>
      <path class="cls-1" d="M216.78,166.68c-.02,1.3.16,2.2.53,2.7.37.49,1.03.81,1.99.93.9.13,1.53.38,1.89.75.36.37.54.85.54,1.44s-.26,1.14-.77,1.57c-.52.43-1.36.64-2.54.64-2.34,0-4.01-.62-5.01-1.87-1-1.25-1.43-3.22-1.29-5.93l.45-8.58c.06-.99-.06-1.6-.35-1.84s-.86-.35-1.71-.35h-.41c-1.46,0-2.19-.57-2.19-1.72,0-.5.15-.92.46-1.26.31-.34.91-.58,1.82-.74l.28-.04c.66-.11,1.11-.31,1.35-.59.24-.28.44-.74.58-1.39l.17-.8c.37-1.6,1.16-2.41,2.36-2.41.67,0,1.14.19,1.41.57.27.38.4.99.4,1.84v.32c0,.87.12,1.47.35,1.78.24.32.69.49,1.36.54l1.29.09c.83.07,1.42.28,1.76.61.34.34.52.75.52,1.24,0,1.06-.73,1.63-2.19,1.72l-.8.04c-.9.06-1.48.26-1.74.59-.26.34-.39.85-.41,1.54l-.11,8.6Z"/>
      <path class="cls-1" d="M231.46,174.85c-1.96,0-3.64-.35-5.03-1.05-1.39-.7-2.45-1.87-3.19-3.49-.74-1.63-1.11-3.81-1.11-6.54v-1.38c0-2.46.38-4.48,1.13-6.06.75-1.58,1.77-2.74,3.05-3.49,1.28-.75,2.72-1.13,4.31-1.13,1.43,0,2.73.35,3.89,1.05,1.16.7,2.09,1.82,2.78,3.34.69,1.53,1.04,3.52,1.04,5.99,0,1.95-1,2.94-3.01,2.99l-5.57.13c-.92.01-1.58.17-1.99.46-.41.29-.61.77-.61,1.43,0,1.15.32,2.04.96,2.67.64.63,1.82.95,3.56.95,1.13,0,2.02-.14,2.67-.42.64-.28,1.25-.42,1.83-.42.53,0,.93.17,1.21.51s.42.77.42,1.3-.22,1.04-.67,1.54c-.44.49-1.14.88-2.08,1.17-.97.32-2.17.47-3.59.47ZM234.03,161.24c.24-.2.37-.61.37-1.22v-.09c0-1.3-.29-2.31-.87-3.01s-1.48-1.05-2.7-1.05c-1.32,0-2.29.34-2.9,1.03s-.95,1.48-1.01,2.36c-.04.73.08,1.24.35,1.54.28.29.73.46,1.37.48l4,.21c.69.03,1.15-.06,1.4-.26Z"/>
      <path class="cls-1" d="M245.58,170.57c-.01,1.76-.24,2.92-.69,3.48-.44.56-.94.84-1.48.84-.6,0-1.11-.18-1.52-.55s-.71-1.08-.9-2.14c-.19-1.06-.27-2.63-.22-4.71l.43-20.57c.03-1.66.23-2.81.61-3.44.38-.63.99-.95,1.82-.95.72,0,1.25.32,1.61.95.36.63.52,1.78.49,3.44l-.15,23.64Z"/>
      <path class="cls-1" d="M257.59,174.85c-1.96,0-3.64-.35-5.03-1.05-1.39-.7-2.45-1.87-3.19-3.49-.74-1.63-1.11-3.81-1.11-6.54v-1.38c0-2.46.38-4.48,1.13-6.06.75-1.58,1.77-2.74,3.05-3.49,1.28-.75,2.72-1.13,4.31-1.13,1.43,0,2.73.35,3.89,1.05,1.16.7,2.09,1.82,2.78,3.34.69,1.53,1.04,3.52,1.04,5.99,0,1.95-1,2.94-3.01,2.99l-5.57.13c-.92.01-1.58.17-1.99.46-.41.29-.61.77-.61,1.43,0,1.15.32,2.04.96,2.67.64.63,1.82.95,3.56.95,1.13,0,2.02-.14,2.67-.42.64-.28,1.25-.42,1.83-.42.53,0,.93.17,1.21.51s.42.77.42,1.3-.22,1.04-.67,1.54c-.44.49-1.14.88-2.08,1.17-.97.32-2.17.47-3.59.47ZM260.17,161.24c.24-.2.37-.61.37-1.22v-.09c0-1.3-.29-2.31-.87-3.01s-1.48-1.05-2.7-1.05c-1.32,0-2.29.34-2.9,1.03s-.95,1.48-1.01,2.36c-.04.73.08,1.24.35,1.54.28.29.73.46,1.37.48l4,.21c.69.03,1.15-.06,1.4-.26Z"/>
      <path class="cls-1" d="M274.23,170.42c.06,1.36-.1,2.41-.47,3.15s-1.02,1.11-1.93,1.11c-.79,0-1.35-.36-1.69-1.07-.34-.72-.5-1.96-.5-3.74v-12.21c0-.53-.1-.88-.29-1.04-.19-.16-.5-.28-.93-.35l-.62-.11c-.7-.11-1.2-.33-1.49-.66s-.44-.74-.44-1.26c0-1.13.7-1.82,2.11-2.06l.6-.11c.37-.07.63-.17.76-.31s.21-.41.22-.83l.04-1.2c.09-2.49.67-4.26,1.75-5.31,1.08-1.05,2.67-1.57,4.76-1.57s3.03.67,3.03,2.02c0,.77-.24,1.33-.71,1.68-.47.34-1.2.6-2.19.75-1,.16-1.69.45-2.06.89-.37.44-.59,1.08-.64,1.92l-.04.67c-.03.43.05.74.23.92.18.19.52.29,1.02.32l1.63.06c1.62.07,2.43.79,2.43,2.15,0,1.22-.82,1.9-2.47,2.04l-1.42.13c-.46.04-.78.14-.96.3-.18.16-.26.44-.25.86l.54,12.85Z"/>
      <path class="cls-1" d="M281.38,172.04c-1.7-1.87-2.56-4.66-2.56-8.37v-1.68c0-2.64.38-4.69,1.15-6.15.77-1.46,1.83-2.5,3.2-3.12,1.37-.62,2.96-.96,4.76-1.03,1.81-.09,3.36.19,4.65.84s2.29,1.76,2.98,3.34,1.03,3.77,1.03,6.54v1.68c0,2.48-.37,4.51-1.12,6.09-.75,1.58-1.76,2.75-3.03,3.51-1.28.76-2.71,1.14-4.3,1.14-2.81,0-5.07-.93-6.77-2.81ZM291.16,168.75c.9-1.21,1.35-2.96,1.35-5.26v-1.33c0-2.14-.34-3.68-1.03-4.62-.69-.95-1.73-1.42-3.12-1.42-.92,0-1.79.23-2.63.7-.84.47-1.52,1.18-2.04,2.14s-.78,2.18-.78,3.65v1.31c0,1.95.45,3.54,1.36,4.78s2.06,1.86,3.45,1.86,2.54-.61,3.44-1.82Z"/>
      <path class="cls-1" d="M299.89,156.02c.04-1.55.22-2.6.54-3.16.31-.56.8-.84,1.46-.84.72,0,1.2.48,1.44,1.44l.04.17c.09.33.19.59.3.78s.3.29.56.29c.24,0,.49-.09.75-.28.26-.19.52-.52.8-1.01.97-1.69,2.39-2.54,4.25-2.54s3.14.7,3.92,2.11c.78,1.4,1.19,3.23,1.24,5.48l.26,13.69c.03.92-.17,1.57-.59,1.97-.42.39-.97.59-1.64.59s-1.27-.2-1.71-.59c-.44-.39-.63-1.05-.59-1.97l.45-10.25c.07-1.76-.13-3.14-.6-4.14-.47-1-1.23-1.49-2.26-1.49-1.36,0-2.49.67-3.38,2-.9,1.33-1.34,3.3-1.34,5.91v7.54c0,1.03-.19,1.77-.58,2.22s-.88.68-1.48.68c-1.53,0-2.27-.97-2.21-2.9l.39-15.71Z"/>
      <path class="cls-1" d="M327.77,177.08c-.3,1.06-.67,1.83-1.12,2.3-.44.47-1,.71-1.65.71-.87,0-1.45-.36-1.74-1.09-.29-.72-.24-1.63.15-2.72l.8-2.24c.13-.37.19-.71.19-1.01,0-.5-.17-.92-.52-1.27-.26-.26-.47-.52-.65-.8-.17-.27-.35-.69-.54-1.25l-4-11.95c-.7-2.09-.85-3.56-.45-4.42s1.12-1.28,2.17-1.28c.5,0,1,.23,1.48.68.49.45.91,1.49,1.27,3.11l1.55,6.96c.2.87.43,1.47.69,1.77.26.31.53.46.82.46.4,0,.76-.27,1.07-.82.32-.54.65-1.6.99-3.16l1.42-6.53c.22-.97.51-1.66.87-2.05s.94-.59,1.73-.59c.74,0,1.29.29,1.62.87s.35,1.42.03,2.53l-6.19,21.77Z"/>
      <path class="cls-1" d="M350.35,157.81s0-.08-.02-.12c-.01-.04-.02-.08-.02-.12-.1-.47-.11-.86-.04-1.16.07-.3.41-.52,1-.67s1.64-.22,3.13-.22,2.44.08,3.04.25c.61.17.99.41,1.14.73.16.32.25.71.27,1.16l.18,2.05c.1.96.13,1.75.11,2.37s-.12,1.11-.29,1.47c-.17.36-.41.62-.72.79-.32.17-.73.28-1.23.32-.51.05-1.11.07-1.81.07-.53,0-1.02-.02-1.47-.07-.45-.04-.83-.14-1.16-.27-.33-.14-.6-.34-.82-.6-.22-.27-.36-.62-.43-1.07l-.87-4.92Z"/>
      <path class="cls-1" d="M380.98,170.57c-.01,1.76-.24,2.92-.69,3.48-.44.56-.94.84-1.48.84-.6,0-1.11-.18-1.52-.55s-.71-1.08-.9-2.14c-.19-1.06-.27-2.63-.22-4.71l.43-20.57c.03-1.66.23-2.81.61-3.44.38-.63.99-.95,1.82-.95.72,0,1.25.32,1.61.95.36.63.52,1.78.49,3.44l-.15,23.64Z"/>
      <path class="cls-1" d="M398.8,155.87c.49,1.56.67,3.7.56,6.43l-.17,4.15c-.04.92.02,1.69.18,2.32.16.63.33,1.2.51,1.72.14.4.27.8.38,1.18s.16.8.16,1.25c0,.53-.19,1.01-.58,1.43-.39.42-.92.63-1.59.63-.49,0-.93-.14-1.33-.41-.4-.27-.79-.76-1.16-1.46-.27-.53-.55-.8-.84-.8s-.57.24-.88.71c-.49.75-1.09,1.34-1.81,1.79-.72.45-1.71.68-2.97.68-1.82,0-3.29-.68-4.43-2.04s-1.7-3.4-1.7-6.13v-.13c0-1.49.3-2.77.9-3.85.6-1.07,1.4-1.91,2.39-2.49.99-.59,2.06-.88,3.22-.88,1.26,0,2.32.41,3.18,1.23.6.57,1.12.74,1.57.52.33-.17.49-.85.49-2.02v-.13c0-1.15-.28-1.99-.84-2.53s-1.35-.81-2.36-.81c-1.1,0-2.06.17-2.87.51-.81.34-1.56.51-2.25.51-.46,0-.86-.16-1.2-.49s-.52-.8-.52-1.42c0-.8.25-1.43.74-1.89.49-.46,1.19-.85,2.09-1.18.6-.21,1.26-.39,1.98-.53.72-.14,1.46-.2,2.24-.2,1.83,0,3.32.33,4.46,1,1.14.67,1.95,1.78,2.44,3.34ZM393.71,164.52c-.55-.45-1.32-.71-2.31-.78-1.35-.11-2.35.15-3.01.8s-.99,1.58-.99,2.79v.21c0,1.15.27,2.04.8,2.67.53.63,1.37.95,2.51.95s2.02-.34,2.74-1.03,1.09-1.68,1.09-2.99v-.34c0-1.06-.28-1.82-.83-2.27Z"/>
      <path class="cls-1" d="M403.23,154.34c.01-1.62.63-2.43,1.85-2.43.46,0,.81.13,1.05.4.24.27.42.66.54,1.17l.04.19c.16.76.44,1.14.86,1.14.31,0,.57-.1.76-.29.19-.19.45-.56.76-1.09.37-.66.85-1.19,1.44-1.59.59-.4,1.39-.6,2.41-.6,1.19,0,2.35.36,3.47,1.09,1.12.72,2.06,1.9,2.79,3.54.74,1.63,1.11,3.82,1.11,6.56v1.63c0,2.69-.35,4.8-1.06,6.33-.71,1.53-1.61,2.6-2.71,3.21-1.1.62-2.23.92-3.41.92-.87,0-1.65-.15-2.33-.45-.68-.3-1.26-.71-1.73-1.22-.56-.6-1.01-.9-1.35-.9-.56,0-.8.57-.71,1.72l.24,3.42c.06.74-.1,1.35-.48,1.82-.38.47-.93.7-1.64.7s-1.29-.24-1.62-.72c-.34-.48-.5-1.09-.48-1.84l.22-22.7ZM416.08,163.5v-.28c0-2.05-.37-3.68-1.12-4.9-.75-1.22-1.93-1.83-3.55-1.83-.85,0-1.59.18-2.25.54-.65.36-1.16,1-1.53,1.93-.36.93-.55,2.25-.55,3.96v.58c0,2.06.41,3.66,1.24,4.8.82,1.14,1.94,1.71,3.34,1.71.7,0,1.39-.22,2.06-.66.67-.44,1.23-1.14,1.68-2.1s.67-2.21.67-3.76Z"/>
      <path class="cls-1" d="M429.9,166.68c-.02,1.3.16,2.2.53,2.7.37.49,1.03.81,1.99.93.9.13,1.53.38,1.89.75.36.37.54.85.54,1.44s-.26,1.14-.77,1.57c-.52.43-1.36.64-2.54.64-2.34,0-4.01-.62-5.01-1.87-1-1.25-1.43-3.22-1.29-5.93l.45-8.58c.06-.99-.06-1.6-.35-1.84s-.86-.35-1.71-.35h-.41c-1.46,0-2.19-.57-2.19-1.72,0-.5.15-.92.46-1.26.31-.34.91-.58,1.82-.74l.28-.04c.66-.11,1.11-.31,1.35-.59.24-.28.44-.74.58-1.39l.17-.8c.37-1.6,1.16-2.41,2.36-2.41.67,0,1.14.19,1.41.57.27.38.4.99.4,1.84v.32c0,.87.12,1.47.35,1.78.24.32.69.49,1.36.54l1.29.09c.83.07,1.42.28,1.76.61.34.34.52.75.52,1.24,0,1.06-.73,1.63-2.19,1.72l-.8.04c-.9.06-1.48.26-1.74.59-.26.34-.39.85-.41,1.54l-.11,8.6Z"/>
      <path class="cls-1" d="M437.81,172.04c-1.7-1.87-2.56-4.66-2.56-8.37v-1.68c0-2.64.38-4.69,1.15-6.15.77-1.46,1.83-2.5,3.2-3.12,1.37-.62,2.96-.96,4.76-1.03,1.81-.09,3.36.19,4.65.84s2.29,1.76,2.98,3.34,1.03,3.77,1.03,6.54v1.68c0,2.48-.37,4.51-1.12,6.09-.75,1.58-1.76,2.75-3.03,3.51-1.28.76-2.71,1.14-4.3,1.14-2.81,0-5.07-.93-6.77-2.81ZM447.59,168.75c.9-1.21,1.35-2.96,1.35-5.26v-1.33c0-2.14-.34-3.68-1.03-4.62-.69-.95-1.73-1.42-3.12-1.42-.92,0-1.79.23-2.63.7-.84.47-1.52,1.18-2.04,2.14s-.78,2.18-.78,3.65v1.31c0,1.95.45,3.54,1.36,4.78s2.06,1.86,3.45,1.86,2.54-.61,3.44-1.82Z"/>
      <path class="cls-1" d="M456.33,154.34c.01-1.62.63-2.43,1.85-2.43.46,0,.81.13,1.05.4.24.27.42.66.54,1.17l.04.19c.16.76.44,1.14.86,1.14.31,0,.57-.1.76-.29.19-.19.45-.56.76-1.09.37-.66.85-1.19,1.44-1.59.59-.4,1.39-.6,2.41-.6,1.19,0,2.35.36,3.47,1.09,1.12.72,2.06,1.9,2.79,3.54.74,1.63,1.11,3.82,1.11,6.56v1.63c0,2.69-.35,4.8-1.06,6.33-.71,1.53-1.61,2.6-2.71,3.21-1.1.62-2.23.92-3.41.92-.87,0-1.65-.15-2.33-.45-.68-.3-1.26-.71-1.73-1.22-.56-.6-1.01-.9-1.35-.9-.56,0-.8.57-.71,1.72l.24,3.42c.06.74-.1,1.35-.48,1.82-.38.47-.93.7-1.64.7s-1.29-.24-1.62-.72c-.34-.48-.5-1.09-.48-1.84l.22-22.7ZM469.19,163.5v-.28c0-2.05-.37-3.68-1.12-4.9-.75-1.22-1.93-1.83-3.55-1.83-.85,0-1.59.18-2.25.54-.65.36-1.16,1-1.53,1.93-.36.93-.55,2.25-.55,3.96v.58c0,2.06.41,3.66,1.24,4.8.82,1.14,1.94,1.71,3.34,1.71.7,0,1.39-.22,2.06-.66.67-.44,1.23-1.14,1.68-2.1s.67-2.21.67-3.76Z"/>
      <path class="cls-1" d="M484.98,177.08c-.3,1.06-.67,1.83-1.12,2.3-.44.47-1,.71-1.65.71-.87,0-1.45-.36-1.74-1.09-.29-.72-.24-1.63.15-2.72l.8-2.24c.13-.37.19-.71.19-1.01,0-.5-.17-.92-.52-1.27-.26-.26-.47-.52-.65-.8-.17-.27-.35-.69-.54-1.25l-4-11.95c-.7-2.09-.85-3.56-.45-4.42s1.12-1.28,2.17-1.28c.5,0,1,.23,1.48.68.49.45.91,1.49,1.27,3.11l1.55,6.96c.2.87.43,1.47.69,1.77.26.31.53.46.82.46.4,0,.76-.27,1.07-.82.32-.54.65-1.6.99-3.16l1.42-6.53c.22-.97.51-1.66.87-2.05s.94-.59,1.73-.59c.74,0,1.29.29,1.62.87s.35,1.42.03,2.53l-6.19,21.77Z"/>
      <path class="cls-1" d="M507.57,157.81s0-.08-.02-.12c-.01-.04-.02-.08-.02-.12-.1-.47-.11-.86-.04-1.16.07-.3.41-.52,1-.67s1.64-.22,3.13-.22,2.44.08,3.04.25c.61.17.99.41,1.14.73.16.32.25.71.27,1.16l.18,2.05c.1.96.13,1.75.11,2.37s-.12,1.11-.29,1.47c-.17.36-.41.62-.72.79-.32.17-.73.28-1.23.32-.51.05-1.11.07-1.81.07-.53,0-1.02-.02-1.47-.07-.45-.04-.83-.14-1.16-.27-.33-.14-.6-.34-.82-.6-.22-.27-.36-.62-.43-1.07l-.87-4.92Z"/>
      <path class="cls-1" d="M533.13,146.93c-.03-1.7.21-2.85.71-3.45s1.13-.89,1.89-.89c.72,0,1.3.27,1.74.82.44.54.69,1.54.75,2.99.03.86.02,1.83-.02,2.92-.04,1.09-.09,2.19-.15,3.31-.06.9-.1,1.79-.14,2.67-.03.87-.05,1.68-.05,2.43s.13,1.26.38,1.55.56.43.93.43c.56,0,1.16-.37,1.81-1.1.5-.59.93-1.25,1.27-1.98s.86-1.66,1.55-2.77c.34-.57.74-1.03,1.18-1.38s.95-.52,1.5-.52c.53,0,.96.18,1.29.53.33.35.49.81.49,1.39,0,.66-.23,1.35-.69,2.08-.66,1.06-1.32,1.9-1.98,2.5-.66.61-1.33,1.33-2.02,2.16-.31.39-.54.77-.68,1.15-.14.38-.2.76-.2,1.15s.05.78.14,1.14c.09.36.28.77.55,1.22.4.67,1,1.39,1.79,2.14.8.75,1.75,1.72,2.87,2.91.66.7.99,1.46.99,2.28,0,.49-.15.91-.44,1.26s-.71.53-1.26.53c-.37,0-.79-.1-1.26-.29-.47-.19-.89-.49-1.28-.89-.7-.74-1.37-1.52-2-2.33-.63-.81-1.25-1.65-1.85-2.53-.57-.86-1-1.46-1.29-1.81-.29-.34-.55-.52-.8-.52-.37,0-.6.23-.68.69-.08.46-.1,1.41-.05,2.86l.06,2.47c.03.7-.13,1.32-.48,1.86s-.93.81-1.75.81c-.52,0-.96-.16-1.33-.48-.37-.32-.66-.93-.86-1.84-.2-.9-.32-2.24-.35-4l-.3-21.47Z"/>
      <path class="cls-1" d="M551.72,172.04c-1.7-1.87-2.56-4.66-2.56-8.37v-1.68c0-2.64.38-4.69,1.15-6.15.77-1.46,1.83-2.5,3.2-3.12,1.37-.62,2.96-.96,4.76-1.03,1.81-.09,3.36.19,4.65.84s2.29,1.76,2.98,3.34,1.03,3.77,1.03,6.54v1.68c0,2.48-.37,4.51-1.12,6.09-.75,1.58-1.76,2.75-3.03,3.51-1.28.76-2.71,1.14-4.3,1.14-2.81,0-5.07-.93-6.77-2.81ZM561.5,168.75c.9-1.21,1.35-2.96,1.35-5.26v-1.33c0-2.14-.34-3.68-1.03-4.62-.69-.95-1.73-1.42-3.12-1.42-.92,0-1.79.23-2.63.7-.84.47-1.52,1.18-2.04,2.14s-.78,2.18-.78,3.65v1.31c0,1.95.45,3.54,1.36,4.78s2.06,1.86,3.45,1.86,2.54-.61,3.44-1.82Z"/>
      <path class="cls-1" d="M570.46,154.19c.03-.97.21-1.67.53-2.08.32-.42.73-.62,1.24-.62.33,0,.62.1.88.31.26.21.42.61.49,1.19l.04.32c.07.47.19.8.36.99s.39.28.67.28c.74,0,1.35-.59,1.83-1.76.37-.89.85-1.58,1.43-2.06.58-.49,1.34-.73,2.29-.73,1.03,0,1.84.31,2.44.93.6.62,1.03,1.42,1.3,2.37.19.62.38,1.04.58,1.27.2.23.48.34.84.34s.64-.1.89-.31c.25-.21.53-.58.85-1.13.53-.89,1.1-1.58,1.72-2.08s1.39-.75,2.32-.75c2.02,0,3.51.78,4.48,2.35.97,1.57,1.44,3.55,1.41,5.94l-.24,12.66c-.01,1.05-.25,1.77-.7,2.17s-.96.6-1.54.6-1.14-.23-1.62-.69c-.48-.46-.68-1.37-.61-2.73l.6-10.62c.07-1.43-.16-2.46-.7-3.1-.54-.63-1.3-.95-2.29-.95-.76,0-1.46.16-2.09.49-.64.33-1.14.9-1.52,1.72s-.54,1.97-.52,3.46l.22,9.65c.04,1.99-.65,2.99-2.06,2.99-.82,0-1.4-.25-1.75-.74-.35-.49-.54-1.25-.57-2.27l-.19-11.05c-.02-1.43-.23-2.43-.65-2.99-.42-.56-1.12-.84-2.13-.84-1.17,0-2.08.45-2.71,1.34-.63.9-1.05,2.56-1.27,5l-.82,9.5c-.06.7-.3,1.22-.74,1.55-.44.33-.95.49-1.54.49s-1.02-.2-1.35-.6-.48-.95-.45-1.66l.64-18.18Z"/>
      <path class="cls-1" d="M600.76,154.34c.01-1.62.63-2.43,1.85-2.43.46,0,.81.13,1.05.4.24.27.42.66.54,1.17l.04.19c.16.76.44,1.14.86,1.14.31,0,.57-.1.76-.29.19-.19.45-.56.76-1.09.37-.66.85-1.19,1.44-1.59.59-.4,1.39-.6,2.41-.6,1.19,0,2.35.36,3.47,1.09,1.12.72,2.06,1.9,2.79,3.54.74,1.63,1.11,3.82,1.11,6.56v1.63c0,2.69-.35,4.8-1.06,6.33-.71,1.53-1.61,2.6-2.71,3.21-1.1.62-2.23.92-3.41.92-.87,0-1.65-.15-2.33-.45-.68-.3-1.26-.71-1.73-1.22-.56-.6-1.01-.9-1.35-.9-.56,0-.8.57-.71,1.72l.24,3.42c.06.74-.1,1.35-.48,1.82-.38.47-.93.7-1.64.7s-1.29-.24-1.62-.72c-.34-.48-.5-1.09-.48-1.84l.22-22.7ZM613.62,163.5v-.28c0-2.05-.37-3.68-1.12-4.9-.75-1.22-1.93-1.83-3.55-1.83-.85,0-1.59.18-2.25.54-.65.36-1.16,1-1.53,1.93-.36.93-.55,2.25-.55,3.96v.58c0,2.06.41,3.66,1.24,4.8.82,1.14,1.94,1.71,3.34,1.71.7,0,1.39-.22,2.06-.66.67-.44,1.23-1.14,1.68-2.1s.67-2.21.67-3.76Z"/>
      <path class="cls-1" d="M636.18,166.62c.01,1.02.1,1.86.27,2.51s.33,1.23.51,1.71.26.99.26,1.51c0,.67-.2,1.2-.6,1.58-.4.38-.94.57-1.61.57-.44,0-.86-.14-1.26-.43s-.68-.79-.85-1.5c-.16-.67-.43-1.01-.82-1.01-.2,0-.4.08-.59.24-.19.16-.42.47-.68.95-.43.79-1.01,1.41-1.73,1.88-.72.47-1.68.7-2.87.7-2.02,0-3.38-.81-4.09-2.44s-1.12-3.91-1.24-6.85l-.43-10.92c-.04-.93.16-1.63.6-2.08.44-.46,1.06-.69,1.85-.69.72,0,1.29.23,1.71.69.42.46.62,1.15.59,2.08l-.19,9.11c-.06,2.03.15,3.54.63,4.52.48.98,1.27,1.47,2.37,1.47,1.23,0,2.27-.53,3.12-1.6s1.21-2.94,1.1-5.62l-.28-7.52c-.06-1.36.1-2.27.46-2.72.36-.45.96-.68,1.77-.68.57,0,1.03.2,1.39.61.35.41.53,1.19.55,2.33l.06,11.58Z"/>
      <path class="cls-1" d="M645.94,166.68c-.02,1.3.16,2.2.53,2.7.37.49,1.03.81,1.99.93.9.13,1.53.38,1.89.75.36.37.54.85.54,1.44s-.26,1.14-.77,1.57c-.52.43-1.36.64-2.54.64-2.34,0-4.01-.62-5.01-1.87-1-1.25-1.43-3.22-1.29-5.93l.45-8.58c.06-.99-.06-1.6-.35-1.84s-.86-.35-1.71-.35h-.41c-1.46,0-2.19-.57-2.19-1.72,0-.5.15-.92.46-1.26.31-.34.91-.58,1.82-.74l.28-.04c.66-.11,1.11-.31,1.35-.59.24-.28.44-.74.58-1.39l.17-.8c.37-1.6,1.16-2.41,2.36-2.41.67,0,1.14.19,1.41.57.27.38.4.99.4,1.84v.32c0,.87.12,1.47.35,1.78.24.32.69.49,1.36.54l1.29.09c.83.07,1.42.28,1.76.61.34.34.52.75.52,1.24,0,1.06-.73,1.63-2.19,1.72l-.8.04c-.9.06-1.48.26-1.74.59-.26.34-.39.85-.41,1.54l-.11,8.6Z"/>
      <path class="cls-1" d="M660.62,174.85c-1.96,0-3.64-.35-5.03-1.05-1.39-.7-2.45-1.87-3.19-3.49-.74-1.63-1.11-3.81-1.11-6.54v-1.38c0-2.46.38-4.48,1.13-6.06.75-1.58,1.77-2.74,3.05-3.49,1.28-.75,2.72-1.13,4.31-1.13,1.43,0,2.73.35,3.89,1.05,1.16.7,2.09,1.82,2.78,3.34.69,1.53,1.04,3.52,1.04,5.99,0,1.95-1,2.94-3.01,2.99l-5.57.13c-.92.01-1.58.17-1.99.46-.41.29-.61.77-.61,1.43,0,1.15.32,2.04.96,2.67.64.63,1.82.95,3.56.95,1.13,0,2.02-.14,2.67-.42.64-.28,1.25-.42,1.83-.42.53,0,.93.17,1.21.51s.42.77.42,1.3-.22,1.04-.67,1.54c-.44.49-1.14.88-2.08,1.17-.97.32-2.17.47-3.59.47ZM663.2,161.24c.24-.2.37-.61.37-1.22v-.09c0-1.3-.29-2.31-.87-3.01s-1.48-1.05-2.7-1.05c-1.32,0-2.29.34-2.9,1.03s-.95,1.48-1.01,2.36c-.04.73.08,1.24.35,1.54.28.29.73.46,1.37.48l4,.21c.69.03,1.15-.06,1.4-.26Z"/>
      <path class="cls-1" d="M670.1,155.03c-.02-1.03.16-1.76.52-2.19.36-.43.81-.64,1.35-.64.73,0,1.24.37,1.53,1.12l.06.17c.27.7.66,1.05,1.16,1.05.56,0,1.05-.37,1.46-1.1.73-1.29,1.82-1.93,3.27-1.93.94,0,1.6.24,1.98.72.37.48.56,1.05.56,1.71,0,1.39-.91,2.25-2.73,2.58-1.33.23-2.35.54-3.06.95-.71.4-1.18,1.04-1.42,1.92s-.3,2.17-.2,3.88l.47,7.82c.16,2.36-.67,3.55-2.49,3.55-.66,0-1.2-.24-1.61-.71-.42-.47-.63-1.2-.65-2.19l-.19-16.7Z"/>
      <path class="cls-1" d="M693.03,177.08c-.3,1.06-.67,1.83-1.12,2.3-.44.47-1,.71-1.65.71-.87,0-1.45-.36-1.74-1.09-.29-.72-.24-1.63.15-2.72l.8-2.24c.13-.37.19-.71.19-1.01,0-.5-.17-.92-.52-1.27-.26-.26-.47-.52-.65-.8-.17-.27-.35-.69-.54-1.25l-4-11.95c-.7-2.09-.85-3.56-.45-4.42s1.12-1.28,2.17-1.28c.5,0,1,.23,1.48.68.49.45.91,1.49,1.27,3.11l1.55,6.96c.2.87.43,1.47.69,1.77.26.31.53.46.82.46.4,0,.76-.27,1.07-.82.32-.54.65-1.6.99-3.16l1.42-6.53c.22-.97.51-1.66.87-2.05s.94-.59,1.73-.59c.74,0,1.29.29,1.62.87s.35,1.42.03,2.53l-6.19,21.77Z"/>
    </g>
  </g>
  <path class="cls-1" d="M138.7,15.52c-26.72-20.84-64.57-20.64-90.59.25C17.14,9.1,6.15,23.97,2.86,30.76.35,35.91-.52,41.91.3,47.99l7.24,95.24c.14,8.17.68,15.21,1.63,21.57l.17,2.06.17.03c2.48,14.45,7.46,25.29,15.21,33.14,14,14.16,34.1,17.01,62.01,17.01,4.79,0,10.05-.06,17.15-.25,11.63-.28,21.26-8.84,22.92-20.36.84-5.89-.59-11.88-3.91-16.73.48-.2.96-.39,1.41-.59,32.52-14.98,53.28-41.76,56.97-73.52,3.83-33.14-11.66-65.95-42.55-90.05ZM103.44,199.49c-64.23,1.58-81.01-2.53-78.4-74.4.23-6.2,8.95-8.5,11.55-2.87,14.98,32.83,12.87,46.91,68.65,64.71,6.9,2.22,5.43,12.36-1.8,12.56ZM96.07,74.57c1.77,24.98-20.67,38.07-25.82,5.74-4.84-21.09,25.74-30.5,25.82-5.74ZM117.05,163.36c-6.08,2.82-14.47.65-18.5-4.67-26.13-34.52,37.68-32.13,42.24-60.54.28-1.69-.84-3.35-2.53-3.55-6.36-.79-7.21-5.35-5.12-8.22,1.04-1.46.56-3.49-1.13-4.11-30.72-10.98-25.77-33.79-67.27-38.1-10.31-1.07-20.47,3.91-25.65,12.9-.62,1.04-1.21,2.17-1.75,3.35-1.63,3.58-6.17,4.73-9.29,2.37-15.74-11.94-18.19-39.28,19.88-29.26,2.93.79,6.08.11,8.34-1.94.53-.45,1.07-.93,1.61-1.38,20.02-17.01,49.48-17.18,70.2-1.01,54.23,42.32,45.76,108.05-11.01,134.18Z"/>
</svg>